<svg xmlns="http://www.w3.org/2000/svg" viewBox="0 0 960 520">
  <defs>
    <linearGradient id="sky" x1="0%" y1="0%" x2="100%" y2="100%">
      <stop offset="0%" stop-color="#dff4ff"/>
      <stop offset="100%" stop-color="#fff1c6"/>
    </linearGradient>
    <linearGradient id="ground" x1="0%" y1="0%" x2="100%" y2="0%">
      <stop offset="0%" stop-color="#1d4ed8"/>
      <stop offset="50%" stop-color="#0f172a"/>
      <stop offset="100%" stop-color="#f97316"/>
    </linearGradient>
  </defs>
  <rect width="960" height="520" rx="48" fill="url(#sky)" />
  <circle cx="190" cy="114" r="84" fill="#ffffff" fill-opacity=".45"/>
  <circle cx="758" cy="96" r="68" fill="#ffffff" fill-opacity=".35"/>
  <path d="M0 418c97-48 189-72 282-72s184 27 274 27c104 0 191-31 404-50v197H0z" fill="url(#ground)" />
  <g stroke="#172033" stroke-width="10" stroke-linejoin="round">
    <path d="M122 373c11-56 48-97 94-97 45 0 73 31 73 83 0 31-4 55-23 93H125c-9-29-11-53-3-79z" fill="#ff8a2b"/>
    <path d="M278 348c19-68 66-118 132-118 61 0 101 40 101 113 0 37-5 70-18 109H293c-18-28-24-61-15-104z" fill="#ffd34e"/>
    <path d="M497 368c12-53 49-93 98-93 52 0 89 33 96 85 5 39 1 63-11 92H518c-16-24-28-48-21-84z" fill="#7dd3fc"/>
    <path d="M672 351c15-59 62-100 117-100 58 0 101 38 108 100 4 35-1 63-19 101H694c-18-29-28-61-22-101z" fill="#f59e0b"/>
  </g>
  <g fill="#172033">
    <path d="M150 245l24-39 13 35 24-40 7 35 22-27-2 36 29-19-9 34 34-7-20 24 36 5-30 14 28 13-34 4 17 20-31-2 8 29-24-17 0 31-18-22-12 29-10-28-20 23-2-31-25 15 8-28-31 2 20-20-34-4 28-13-30-14 36-5-19-23 34 6-9-34 27 18-2-34 22 27 14-35z"/>
    <path d="M334 182l26-44 14 40 27-45 6 40 24-30-3 39 30-20-10 37 37-8-21 26 39 5-32 16 31 15-38 4 18 24-34-2 9 31-27-19 1 34-20-24-13 31-10-31-23 24-2-34-28 17 8-30-34 2 21-23-38-6 32-15-33-16 39-5-21-25 37 7-10-36 30 18-2-38 23 29 14-39z"/>
    <path d="M557 240l21-34 10 29 19-33 4 27 18-20-3 28 23-14-8 26 30-6-17 20 31 4-25 12 25 11-31 4 15 19-27-2 7 25-21-14v27l-17-19-10 24-8-23-18 20-2-27-22 13 7-24-28 1 17-18-31-4 25-12-25-11 30-4-16-19 29 5-8-27 23 13-2-28 19 21 11-28z"/>
    <path d="M737 198l24-39 13 35 24-40 7 35 22-27-2 36 29-19-9 34 34-7-20 24 36 5-30 14 28 13-34 4 17 20-31-2 8 29-24-17 0 31-18-22-12 29-10-28-20 23-2-31-25 15 8-28-31 2 20-20-34-4 28-13-30-14 36-5-19-23 34 6-9-34 27 18-2-34 22 27 14-35z"/>
  </g>
</svg>
