<svg xmlns="http://www.w3.org/2000/svg" viewBox="0 0 320 320">
  <defs>
    <linearGradient id="bg" x1="0%" y1="0%" x2="100%" y2="100%">
      <stop offset="0%" stop-color="#ffe4e8"/>
      <stop offset="100%" stop-color="#ff9bb1"/>
    </linearGradient>
  </defs>
  <rect x="14" y="14" width="292" height="292" rx="52" fill="url(#bg)" stroke="#172033" stroke-width="12"/>
  <path d="M86 174c0-45 33-78 74-78 30 0 57 18 69 46l23 3-8 23h-18c-4 46-34 77-75 77-40 0-65-27-65-71z" fill="#ffffff" stroke="#172033" stroke-width="10" stroke-linejoin="round"/>
  <path d="M146 166c12-14 23-21 33-21 14 0 26 11 36 21-10 12-22 21-36 21s-24-9-33-21z" fill="#172033"/>
  <circle cx="183" cy="166" r="15" fill="#ff5f1f"/>
  <path d="M74 145l27 2M62 171l28-1M71 197l25-5" stroke="#172033" stroke-width="8" stroke-linecap="round"/>
  <path d="M235 120l29 5M228 224l30-8" stroke="#172033" stroke-width="8" stroke-linecap="round"/>
</svg>
