<svg xmlns="http://www.w3.org/2000/svg" viewBox="0 0 320 320">
  <defs>
    <linearGradient id="bg" x1="0%" y1="0%" x2="100%" y2="100%">
      <stop offset="0%" stop-color="#fff7cf"/>
      <stop offset="100%" stop-color="#ffd04d"/>
    </linearGradient>
    <linearGradient id="dragon" x1="0%" y1="0%" x2="100%" y2="100%">
      <stop offset="0%" stop-color="#27d38a"/>
      <stop offset="100%" stop-color="#0f8e5d"/>
    </linearGradient>
  </defs>
  <rect x="14" y="14" width="292" height="292" rx="52" fill="url(#bg)" stroke="#172033" stroke-width="12"/>
  <path d="M95 225c8-25 39-42 53-72 12-25 13-42 36-57 16-10 36-13 53-6-20 3-33 15-38 25 23 0 43 8 56 23-14-5-31-6-43-1 15 7 28 18 37 33-18-10-36-14-50-10 8 12 10 30 6 45-5-14-14-24-25-28-1 18-11 35-28 47 3-14 2-28-7-39-9 19-27 33-50 40z" fill="url(#dragon)" stroke="#172033" stroke-width="10" stroke-linejoin="round"/>
  <path d="M183 92c11-17 34-24 51-19-8 7-12 15-13 24" fill="none" stroke="#172033" stroke-width="10" stroke-linecap="round"/>
  <circle cx="212" cy="126" r="7" fill="#172033"/>
  <path d="M224 136c11 2 18 7 25 14" fill="none" stroke="#172033" stroke-width="8" stroke-linecap="round"/>
  <circle cx="91" cy="89" r="20" fill="#ff8a2b" stroke="#172033" stroke-width="10"/>
  <path d="M83 89h16M91 81v16" stroke="#172033" stroke-width="8" stroke-linecap="round"/>
  <path d="M59 249c19 13 44 18 64 12" fill="none" stroke="#172033" stroke-width="8" stroke-linecap="round"/>
</svg>
